<svg width="95" height="20" fill="none" xmlns="http://www.w3.org/2000/svg"><g clip-path="url(#clip0_2_10)" fill="#101828"><path d="M.524.533h2.964l2.44 13.098L8.231.532h3.032L7.547 19.048H4.24L.524.533zm12.623 0h7.752V2.91h-4.4v5.326h3.465v2.354H16.5v6.149h4.446v2.309h-7.798V.533zm9.753 0h4.445c1.946 0 3.398.374 4.355 1.12.958.732 1.437 1.997 1.437 3.795 0 1.173-.175 2.133-.525 2.88-.334.731-.92 1.264-1.755 1.6l2.576 9.12h-3.374l-2.212-8.48h-1.596v8.48h-3.352V.533zm4.423 7.932c.957 0 1.634-.221 2.029-.663.41-.442.615-1.166.615-2.172 0-.975-.182-1.683-.547-2.125-.35-.442-.988-.663-1.915-.663h-1.254v5.623h1.072zM40.63 19.299c-1.916 0-3.284-.51-4.104-1.531-.821-1.037-1.232-2.545-1.232-4.526V6.293c0-1.965.41-3.451 1.232-4.457C37.346.83 38.714.328 40.63.328c1.9 0 3.26.502 4.08 1.508.822 1.006 1.232 2.492 1.232 4.457v6.949c0 1.966-.418 3.467-1.254 4.503-.82 1.036-2.174 1.554-4.058 1.554zm0-2.491c.744 0 1.246-.237 1.504-.709.259-.472.388-1.158.388-2.057V5.516c0-.899-.13-1.577-.388-2.034-.243-.457-.744-.686-1.504-.686s-1.27.236-1.528.709c-.258.457-.388 1.127-.388 2.011v8.526c0 .899.13 1.585.388 2.057s.768.709 1.528.709zM48.438.533h2.348l4.492 10.56V.533h2.782v18.515h-2.235L51.311 7.985v11.063h-2.873V.533zm12.515 0h3.33v18.515h-3.33V.533zm11.159 18.766c-1.916 0-3.276-.533-4.082-1.6-.79-1.082-1.185-2.606-1.185-4.571V6.522c0-2.027.395-3.566 1.185-4.617C68.82.853 70.181.328 72.112.328c1.808 0 3.093.457 3.853 1.371.76.914 1.14 2.232 1.14 3.954v1.555h-3.238v-1.6c0-.656-.03-1.166-.091-1.532-.06-.38-.22-.686-.479-.914-.243-.244-.63-.366-1.163-.366-.547 0-.957.13-1.23.389-.274.244-.457.579-.548 1.005-.076.412-.114.953-.114 1.623v8.023c0 1.052.137 1.813.41 2.286.274.457.768.686 1.482.686.517 0 .897-.122 1.14-.366.259-.244.418-.564.48-.96.075-.412.113-.952.113-1.623v-1.668h3.238v1.485c0 1.783-.373 3.17-1.117 4.16-.745.975-2.037 1.463-3.876 1.463zM82.213.533h3.602l3.694 18.515h-3.124l-.73-4.275h-3.214l-.752 4.275h-3.17L82.213.533zm3.078 12.092l-1.254-7.772-1.254 7.772h2.508zm5.756 3.291h3.01v3.132h-3.01v-3.132z"/></g><defs><clipPath id="clip0_2_10"><path fill="#fff" d="M0 0h95v20H0z"/></clipPath></defs></svg>